<svg id="visual" viewBox="0 0 1920 1080" width="1920" height="1080" xmlns="http://www.w3.org/2000/svg" xmlns:xlink="http://www.w3.org/1999/xlink" version="1.1"><path d="M0 908L80 888.2C160 868.3 320 828.7 480 814C640 799.3 800 809.7 960 836.5C1120 863.3 1280 906.7 1440 924.7C1600 942.7 1760 935.3 1840 931.7L1920 928L1920 1081L1840 1081C1760 1081 1600 1081 1440 1081C1280 1081 1120 1081 960 1081C800 1081 640 1081 480 1081C320 1081 160 1081 80 1081L0 1081Z" fill="#18222e" stroke-linecap="round" stroke-linejoin="miter"></path></svg>